<mxfile host="www.draw.io" modified="2020-05-28T03:26:40.552Z" agent="5.0 (X11; Linux x86_64) AppleWebKit/537.36 (KHTML, like Gecko) Chrome/80.0.3987.149 Safari/537.36" etag="XbwGxIgg8MpEbjexv4eA" version="13.1.3" type="github">
  <diagram name="Page-1" id="2ca16b54-16f6-2749-3443-fa8db7711227">
    <mxGraphModel dx="984" dy="571" grid="1" gridSize="10" guides="1" tooltips="1" connect="1" arrows="1" fold="1" page="1" pageScale="1" pageWidth="1100" pageHeight="850" background="#ffffff" math="0" shadow="0">
      <root>
        <mxCell id="0" />
        <mxCell id="1" parent="0" />
        <mxCell id="2ed32ef02a7f4228-8" value="&lt;div style=&quot;box-sizing: border-box ; width: 100% ; background: #e4e4e4 ; padding: 2px&quot;&gt;t_dms_node 文件节点表&lt;/div&gt;&lt;table style=&quot;width: 100% ; font-size: 1em&quot; cellpadding=&quot;2&quot; cellspacing=&quot;0&quot;&gt;&lt;tbody&gt;&lt;tr&gt;&lt;td&gt;id&lt;/td&gt;&lt;td&gt;#自增id&lt;/td&gt;&lt;/tr&gt;&lt;tr&gt;&lt;td&gt;uid&lt;/td&gt;&lt;td&gt;用户id&lt;/td&gt;&lt;/tr&gt;&lt;tr&gt;&lt;td&gt;type&lt;/td&gt;&lt;td&gt;节点类型,１:文件 2:目录&lt;br&gt;&lt;/td&gt;&lt;/tr&gt;&lt;tr&gt;&lt;td&gt;name&lt;br&gt;&lt;/td&gt;&lt;td&gt;节点名称&lt;br&gt;&lt;/td&gt;&lt;/tr&gt;&lt;tr&gt;&lt;td&gt;size&lt;br&gt;&lt;/td&gt;&lt;td&gt;节点占空间大小(byte)&lt;br&gt;&lt;/td&gt;&lt;/tr&gt;&lt;tr&gt;&lt;td&gt;parent&lt;/td&gt;&lt;td&gt;上级目录&lt;br&gt;&lt;/td&gt;&lt;/tr&gt;&lt;tr&gt;&lt;td&gt;is_in_rootpath&lt;/td&gt;&lt;td&gt;是否处于根目录下&lt;/td&gt;&lt;/tr&gt;&lt;tr&gt;&lt;td&gt;trumb_nail&lt;/td&gt;&lt;td&gt;缩略图&lt;/td&gt;&lt;/tr&gt;&lt;tr&gt;&lt;td&gt;&lt;/td&gt;&lt;td&gt;&lt;/td&gt;&lt;/tr&gt;&lt;tr&gt;&lt;td&gt;is_del&lt;br&gt;&lt;/td&gt;&lt;td&gt;是否已删除&lt;br&gt;&lt;/td&gt;&lt;/tr&gt;&lt;/tbody&gt;&lt;/table&gt;&lt;table cellpadding=&quot;2&quot; cellspacing=&quot;0&quot; style=&quot;font-size: 1em ; width: 289.6px&quot;&gt;&lt;tbody&gt;&lt;tr&gt;&lt;td&gt;create_time&lt;br&gt;&lt;/td&gt;&lt;td&gt;创建时间&lt;br&gt;&lt;/td&gt;&lt;/tr&gt;&lt;tr&gt;&lt;td&gt;update_time&lt;br&gt;&lt;/td&gt;&lt;td&gt;更新时间&lt;/td&gt;&lt;/tr&gt;&lt;/tbody&gt;&lt;/table&gt;" style="verticalAlign=top;align=left;overflow=fill;html=1;rounded=0;shadow=0;comic=0;labelBackgroundColor=none;strokeWidth=1;fontFamily=Verdana;fontSize=12" parent="1" vertex="1">
          <mxGeometry x="70" y="230" width="290" height="330" as="geometry" />
        </mxCell>
        <mxCell id="S6io6cpMIMdtHFN0KjW5-1" value="&lt;div style=&quot;box-sizing: border-box ; width: 100% ; background: #e4e4e4 ; padding: 2px&quot;&gt;t_dms_opt_record 文件操作记录表&lt;/div&gt;&lt;table style=&quot;width: 100% ; font-size: 1em&quot; cellpadding=&quot;2&quot; cellspacing=&quot;0&quot;&gt;&lt;tbody&gt;&lt;tr&gt;&lt;td&gt;id&lt;/td&gt;&lt;td&gt;#自增id&lt;/td&gt;&lt;/tr&gt;&lt;tr&gt;&lt;td&gt;uid&lt;/td&gt;&lt;td&gt;用户id&lt;/td&gt;&lt;/tr&gt;&lt;tr&gt;&lt;td&gt;type&lt;/td&gt;&lt;td&gt;操作节点类型,１:文件 2:目录&lt;br&gt;&lt;/td&gt;&lt;/tr&gt;&lt;tr&gt;&lt;td&gt;name&lt;br&gt;&lt;/td&gt;&lt;td&gt;节点名称&lt;br&gt;&lt;/td&gt;&lt;/tr&gt;&lt;tr&gt;&lt;td&gt;opt_type&lt;br&gt;&lt;/td&gt;&lt;td&gt;操作类型,1:创建 2:更新 3:删除 4:下载&lt;/td&gt;&lt;/tr&gt;&lt;tr&gt;&lt;td&gt;create_time&lt;br&gt;update_time&lt;/td&gt;&lt;td&gt;创建时间&lt;br&gt;更新时间&lt;/td&gt;&lt;/tr&gt;&lt;/tbody&gt;&lt;/table&gt;" style="verticalAlign=top;align=left;overflow=fill;html=1;rounded=0;shadow=0;comic=0;labelBackgroundColor=none;strokeWidth=1;fontFamily=Verdana;fontSize=12" vertex="1" parent="1">
          <mxGeometry x="400" y="230" width="290" height="150" as="geometry" />
        </mxCell>
        <mxCell id="S6io6cpMIMdtHFN0KjW5-2" value="&lt;div style=&quot;box-sizing: border-box ; width: 100% ; background: #e4e4e4 ; padding: 2px&quot;&gt;t_dms_space 使用空间表&lt;/div&gt;&lt;table style=&quot;width: 100% ; font-size: 1em&quot; cellpadding=&quot;2&quot; cellspacing=&quot;0&quot;&gt;&lt;tbody&gt;&lt;tr&gt;&lt;td&gt;id&lt;/td&gt;&lt;td&gt;#自增id&lt;/td&gt;&lt;/tr&gt;&lt;tr&gt;&lt;td&gt;uid&lt;/td&gt;&lt;td&gt;用户id&lt;/td&gt;&lt;/tr&gt;&lt;tr&gt;&lt;td&gt;space_used&lt;/td&gt;&lt;td&gt;已使用的空间(byte)&lt;/td&gt;&lt;/tr&gt;&lt;tr&gt;&lt;td&gt;&lt;br&gt;&lt;/td&gt;&lt;td&gt;&lt;/td&gt;&lt;/tr&gt;&lt;/tbody&gt;&lt;/table&gt;" style="verticalAlign=top;align=left;overflow=fill;html=1;rounded=0;shadow=0;comic=0;labelBackgroundColor=none;strokeWidth=1;fontFamily=Verdana;fontSize=12" vertex="1" parent="1">
          <mxGeometry x="400" y="410" width="290" height="150" as="geometry" />
        </mxCell>
      </root>
    </mxGraphModel>
  </diagram>
</mxfile>
